# This file uses centimeters as units for non-parametric coordinates.

mtllib Tablr.mtl
g default
v -172.322205 139.623123 88.807861
v 172.322205 139.623123 88.807861
v -172.322205 159.552750 88.807861
v 172.322205 159.552750 88.807861
v -172.322205 159.552750 -88.807861
v 172.322205 159.552750 -88.807861
v -172.322205 139.623123 -88.807861
v 172.322205 139.623123 -88.807861
v 157.290802 -0.056511 58.429733
v 139.534561 -0.056511 58.429733
v 157.290802 149.748627 58.429733
v 139.534561 149.748627 58.429733
v 157.290802 149.748627 74.863106
v 139.534561 149.748627 74.863106
v 157.290802 -0.056511 74.863106
v 139.534561 -0.056511 74.863106
v 157.290802 -0.056511 -58.429733
v 139.534561 -0.056511 -58.429733
v 157.290802 149.748627 -58.429733
v 139.534561 149.748627 -58.429733
v 157.290802 149.748627 -74.863106
v 139.534561 149.748627 -74.863106
v 157.290802 -0.056511 -74.863106
v 139.534561 -0.056511 -74.863106
v -157.290802 -0.056511 58.429733
v -139.534561 -0.056511 58.429733
v -157.290802 149.748627 58.429733
v -139.534561 149.748627 58.429733
v -157.290802 149.748627 74.863106
v -139.534561 149.748627 74.863106
v -157.290802 -0.056511 74.863106
v -139.534561 -0.056511 74.863106
v -157.290802 -0.056511 -58.429733
v -139.534561 -0.056511 -58.429733
v -157.290802 149.748627 -58.429733
v -139.534561 149.748627 -58.429733
v -157.290802 149.748627 -74.863106
v -139.534561 149.748627 -74.863106
v -157.290802 -0.056511 -74.863106
v -139.534561 -0.056511 -74.863106
vt 0.778668 0.706850
vt 0.081208 0.706850
vt 0.081208 0.650575
vt 0.778668 0.650575
vt 0.778668 0.706850
vt 0.081208 0.706850
vt 0.081208 0.650575
vt 0.778668 0.650575
vt 0.342959 0.952455
vt 0.342959 0.887924
vt 0.765964 0.887924
vt 0.765964 0.952455
vt 0.342959 0.952455
vt 0.342959 0.887924
vt 0.765964 0.887924
vt 0.765964 0.952455
vt 0.342959 0.887924
vt 0.765964 0.887924
vt 0.765964 0.952455
vt 0.342959 0.952455
vt 0.342959 0.887924
vt 0.765964 0.887924
vt 0.765964 0.952455
vt 0.342959 0.952455
vt 0.342959 0.887924
vt 0.765964 0.887924
vt 0.765964 0.952455
vt 0.342959 0.952455
vt 0.342959 0.887924
vt 0.765964 0.887924
vt 0.765964 0.952455
vt 0.342959 0.952455
vt 0.342959 0.952455
vt 0.342959 0.887924
vt 0.765964 0.887924
vt 0.765964 0.952455
vt 0.342959 0.952455
vt 0.342959 0.887924
vt 0.765964 0.887924
vt 0.765964 0.952455
vt 0.921546 0.599266
vt 0.021499 0.599266
vt 0.021499 0.098080
vt 0.921545 0.098080
vt 0.921545 0.599266
vt 0.021499 0.599266
vt 0.021499 0.098080
vt 0.921545 0.098080
vt 0.188360 0.739700
vt 0.252891 0.739700
vt 0.252891 0.804231
vt 0.188360 0.804231
vt 0.188360 0.739700
vt 0.252891 0.739700
vt 0.252891 0.804231
vt 0.188360 0.804231
vt 0.188360 0.804231
vt 0.188360 0.739700
vt 0.252891 0.739700
vt 0.252891 0.804231
vt 0.188361 0.804231
vt 0.188361 0.739700
vt 0.252891 0.739700
vt 0.252891 0.804231
vt 0.252891 0.804231
vt 0.188361 0.804231
vt 0.188361 0.739700
vt 0.252891 0.739700
vt 0.252891 0.804231
vt 0.188361 0.804231
vt 0.188361 0.739700
vt 0.252891 0.739700
vt 0.188361 0.804231
vt 0.188361 0.739700
vt 0.252891 0.739700
vt 0.252891 0.804231
vt 0.188360 0.804231
vt 0.188360 0.739700
vt 0.252891 0.739700
vt 0.252891 0.804231
vt 0.748927 0.064383
vt 0.034835 0.064383
vt 0.034835 0.032299
vt 0.748927 0.032299
vt 0.748927 0.064383
vt 0.034835 0.064383
vt 0.034835 0.032299
vt 0.748927 0.032299
vt 0.759021 0.771347
vt 0.759021 0.835877
vt 0.336016 0.835877
vt 0.336016 0.771347
vt 0.759021 0.771347
vt 0.759021 0.835877
vt 0.336016 0.835877
vt 0.336016 0.771347
vt 0.342959 0.887924
vt 0.765964 0.887924
vt 0.765964 0.952455
vt 0.342959 0.952455
vt 0.342959 0.887924
vt 0.765964 0.887924
vt 0.765964 0.952455
vt 0.342959 0.952455
vt 0.765964 0.952455
vt 0.342959 0.952455
vt 0.342959 0.887924
vt 0.765964 0.887924
vt 0.765964 0.952455
vt 0.342959 0.952455
vt 0.342959 0.887924
vt 0.765964 0.887924
vt 0.342959 0.952455
vt 0.342959 0.887924
vt 0.765964 0.887924
vt 0.765964 0.952455
vt 0.342959 0.952455
vt 0.342959 0.887924
vt 0.765964 0.887924
vt 0.765964 0.952455
vn 0.000000 0.000000 1.000000
vn 0.000000 0.000000 1.000000
vn 0.000000 0.000000 1.000000
vn 0.000000 0.000000 1.000000
vn 0.000000 1.000000 0.000000
vn 0.000000 1.000000 0.000000
vn 0.000000 1.000000 0.000000
vn 0.000000 1.000000 0.000000
vn 0.000000 0.000000 -1.000000
vn 0.000000 0.000000 -1.000000
vn 0.000000 0.000000 -1.000000
vn 0.000000 0.000000 -1.000000
vn 0.000000 -1.000000 0.000000
vn 0.000000 -1.000000 0.000000
vn 0.000000 -1.000000 0.000000
vn 0.000000 -1.000000 0.000000
vn 1.000000 0.000000 0.000000
vn 1.000000 0.000000 0.000000
vn 1.000000 0.000000 0.000000
vn 1.000000 0.000000 0.000000
vn -1.000000 0.000000 0.000000
vn -1.000000 0.000000 0.000000
vn -1.000000 0.000000 0.000000
vn -1.000000 0.000000 0.000000
vn 0.000000 0.000000 -1.000000
vn 0.000000 0.000000 -1.000000
vn 0.000000 0.000000 -1.000000
vn 0.000000 0.000000 -1.000000
vn 0.000000 1.000000 0.000000
vn 0.000000 1.000000 0.000000
vn 0.000000 1.000000 0.000000
vn 0.000000 1.000000 0.000000
vn 0.000000 0.000000 1.000000
vn 0.000000 0.000000 1.000000
vn 0.000000 0.000000 1.000000
vn 0.000000 0.000000 1.000000
vn 0.000000 -1.000000 0.000000
vn 0.000000 -1.000000 0.000000
vn 0.000000 -1.000000 0.000000
vn 0.000000 -1.000000 0.000000
vn -1.000000 0.000000 0.000000
vn -1.000000 0.000000 0.000000
vn -1.000000 0.000000 0.000000
vn -1.000000 0.000000 0.000000
vn 1.000000 0.000000 0.000000
vn 1.000000 0.000000 0.000000
vn 1.000000 0.000000 0.000000
vn 1.000000 0.000000 0.000000
vn 0.000000 0.000000 1.000000
vn 0.000000 0.000000 1.000000
vn 0.000000 0.000000 1.000000
vn 0.000000 0.000000 1.000000
vn 0.000000 1.000000 0.000000
vn 0.000000 1.000000 0.000000
vn 0.000000 1.000000 0.000000
vn 0.000000 1.000000 0.000000
vn 0.000000 0.000000 -1.000000
vn 0.000000 0.000000 -1.000000
vn 0.000000 0.000000 -1.000000
vn 0.000000 0.000000 -1.000000
vn 0.000000 -1.000000 0.000000
vn 0.000000 -1.000000 0.000000
vn 0.000000 -1.000000 0.000000
vn 0.000000 -1.000000 0.000000
vn -1.000000 0.000000 0.000000
vn -1.000000 0.000000 0.000000
vn -1.000000 0.000000 0.000000
vn -1.000000 0.000000 0.000000
vn 1.000000 0.000000 0.000000
vn 1.000000 0.000000 0.000000
vn 1.000000 0.000000 0.000000
vn 1.000000 0.000000 0.000000
vn 0.000000 0.000000 -1.000000
vn 0.000000 0.000000 -1.000000
vn 0.000000 0.000000 -1.000000
vn 0.000000 0.000000 -1.000000
vn 0.000000 1.000000 0.000000
vn 0.000000 1.000000 0.000000
vn 0.000000 1.000000 0.000000
vn 0.000000 1.000000 0.000000
vn 0.000000 0.000000 1.000000
vn 0.000000 0.000000 1.000000
vn 0.000000 0.000000 1.000000
vn 0.000000 0.000000 1.000000
vn 0.000000 -1.000000 0.000000
vn 0.000000 -1.000000 0.000000
vn 0.000000 -1.000000 0.000000
vn 0.000000 -1.000000 0.000000
vn 1.000000 0.000000 0.000000
vn 1.000000 0.000000 0.000000
vn 1.000000 0.000000 0.000000
vn 1.000000 0.000000 0.000000
vn -1.000000 0.000000 0.000000
vn -1.000000 0.000000 0.000000
vn -1.000000 0.000000 0.000000
vn -1.000000 0.000000 0.000000
vn 0.000000 0.000000 1.000000
vn 0.000000 0.000000 1.000000
vn 0.000000 0.000000 1.000000
vn 0.000000 0.000000 1.000000
vn 0.000000 1.000000 0.000000
vn 0.000000 1.000000 0.000000
vn 0.000000 1.000000 0.000000
vn 0.000000 1.000000 0.000000
vn 0.000000 0.000000 -1.000000
vn 0.000000 0.000000 -1.000000
vn 0.000000 0.000000 -1.000000
vn 0.000000 0.000000 -1.000000
vn 0.000000 -1.000000 0.000000
vn 0.000000 -1.000000 0.000000
vn 0.000000 -1.000000 0.000000
vn 0.000000 -1.000000 0.000000
vn 1.000000 0.000000 0.000000
vn 1.000000 0.000000 0.000000
vn 1.000000 0.000000 0.000000
vn 1.000000 0.000000 0.000000
vn -1.000000 0.000000 0.000000
vn -1.000000 0.000000 0.000000
vn -1.000000 0.000000 0.000000
vn -1.000000 0.000000 0.000000
s off
g pCube4
usemtl aiStandardSurface1SG
f 1/81/1 2/82/2 4/83/3 3/84/4
f 3/41/5 4/42/6 6/43/7 5/44/8
f 5/85/9 6/86/10 8/87/11 7/88/12
f 7/45/13 8/46/14 2/47/15 1/48/16
f 2/1/17 8/2/18 6/3/19 4/4/20
f 7/5/21 1/6/22 3/7/23 5/8/24
f 9/89/25 10/90/26 12/91/27 11/92/28
f 11/49/29 12/50/30 14/51/31 13/52/32
f 13/93/33 14/94/34 16/95/35 15/96/36
f 15/53/37 16/54/38 10/55/39 9/56/40
f 10/9/41 16/10/42 14/11/43 12/12/44
f 15/13/45 9/14/46 11/15/47 13/16/48
f 17/97/49 19/98/50 20/99/51 18/100/52
f 19/57/53 21/58/54 22/59/55 20/60/56
f 21/101/57 23/102/58 24/103/59 22/104/60
f 23/61/61 17/62/62 18/63/63 24/64/64
f 18/17/65 20/18/66 22/19/67 24/20/68
f 23/21/69 21/22/70 19/23/71 17/24/72
f 25/105/73 27/106/74 28/107/75 26/108/76
f 27/65/77 29/66/78 30/67/79 28/68/80
f 29/109/81 31/110/82 32/111/83 30/112/84
f 31/69/85 25/70/86 26/71/87 32/72/88
f 26/25/89 28/26/90 30/27/91 32/28/92
f 31/29/93 29/30/94 27/31/95 25/32/96
f 33/113/97 34/114/98 36/115/99 35/116/100
f 35/73/101 36/74/102 38/75/103 37/76/104
f 37/117/105 38/118/106 40/119/107 39/120/108
f 39/77/109 40/78/110 34/79/111 33/80/112
f 34/33/113 40/34/114 38/35/115 36/36/116
f 39/37/117 33/38/118 35/39/119 37/40/120
