# This file uses centimeters as units for non-parametric coordinates.

mtllib TVScreen.mtl
g default
v -0.515379 20.564161 49.484573
v 0.515379 20.564161 49.484573
v -0.515379 83.070992 49.484573
v 0.515379 83.070992 49.484573
v -0.515379 83.070992 -49.484573
v 0.515379 83.070992 -49.484573
v -0.515379 20.564161 -49.484573
v 0.515379 20.564161 -49.484573
vt 0.121840 0.481510
vt 0.872366 0.481510
vt 0.872366 0.892924
vt 0.121840 0.892924
vt 0.655866 0.035275
vt 0.985344 0.035275
vt 0.985344 0.364753
vt 0.655866 0.364753
vt 0.655866 0.035275
vt 0.985344 0.035275
vt 0.985344 0.364753
vt 0.655866 0.364753
vt 0.655866 0.035275
vt 0.985344 0.035275
vt 0.985344 0.364753
vt 0.655866 0.364753
vt 0.655866 0.035275
vt 0.985344 0.035275
vt 0.985344 0.364753
vt 0.655866 0.364753
vn 0.000000 0.000000 1.000000
vn 0.000000 0.000000 1.000000
vn 0.000000 0.000000 1.000000
vn 0.000000 0.000000 1.000000
vn 0.000000 1.000000 0.000000
vn 0.000000 1.000000 0.000000
vn 0.000000 1.000000 0.000000
vn 0.000000 1.000000 0.000000
vn 0.000000 0.000000 -1.000000
vn 0.000000 0.000000 -1.000000
vn 0.000000 0.000000 -1.000000
vn 0.000000 0.000000 -1.000000
vn 0.000000 -1.000000 0.000000
vn 0.000000 -1.000000 0.000000
vn 0.000000 -1.000000 0.000000
vn 0.000000 -1.000000 0.000000
vn -1.000000 0.000000 0.000000
vn -1.000000 0.000000 0.000000
vn -1.000000 0.000000 0.000000
vn -1.000000 0.000000 0.000000
s off
g pCube5
usemtl initialShadingGroup
f 1/13/1 2/14/2 4/15/3 3/16/4
f 3/5/5 4/6/6 6/7/7 5/8/8
f 5/17/9 6/18/10 8/19/11 7/20/12
f 7/9/13 8/10/14 2/11/15 1/12/16
usemtl aiStandardSurface4SG
f 7/1/17 1/2/18 3/3/19 5/4/20
