# This file uses centimeters as units for non-parametric coordinates.

mtllib Wall.mtl
g default
v -177.998968 0.000002 177.998968
v 177.998968 0.000002 177.998968
v -177.998968 355.997939 177.998968
v 177.998968 355.997939 177.998968
v -177.998968 355.997939 -177.998968
v 177.998968 355.997939 -177.998968
v -177.998968 0.000002 -177.998968
v 177.998968 0.000002 -177.998968
v -177.998968 0.000002 177.998968
v -177.998968 355.997939 177.998968
v 177.998968 355.997939 177.998968
v 177.998968 0.000002 177.998968
v 177.998968 130.514440 177.998968
v 177.998968 225.483502 177.998968
v 177.998968 225.483502 -177.998968
v 177.998968 130.514440 -177.998968
v 177.998968 130.514440 154.307639
v 177.998968 225.483502 154.307639
v 177.998968 225.483502 -154.307639
v 177.998968 130.514440 -154.307639
v 177.998968 130.514440 127.276992
v 177.998968 225.483502 127.276992
v 177.998968 225.483502 -127.276992
v 177.998968 130.514440 -127.276992
v 177.998968 130.514440 40.347079
v 177.998968 225.483502 40.347079
v 177.998968 225.483502 -40.347079
v 177.998968 130.514440 -40.347079
vt 0.001977 0.001992
vt 0.990703 0.001992
vt 0.001977 0.990718
vt 0.990703 0.990718
vt 0.001977 0.001992
vt 0.001977 0.990718
vt 0.990703 0.990718
vt 0.990703 0.001992
vt 0.034473 0.994673
vt 0.034473 0.998008
vt 0.031138 0.998008
vt 0.031138 0.994673
vt 0.044129 0.994673
vt 0.044129 0.998008
vt 0.040794 0.998008
vt 0.040794 0.994673
vt 0.011826 0.998008
vt 0.011826 0.994673
vt 0.015161 0.994673
vt 0.015161 0.998008
vt 0.001977 0.998008
vt 0.001977 0.994673
vt 0.005313 0.994673
vt 0.005313 0.998008
vt 0.021482 0.998008
vt 0.021482 0.994673
vt 0.024817 0.994673
vt 0.024817 0.998008
vt 0.034473 0.994673
vt 0.034473 0.998008
vt 0.031138 0.998008
vt 0.031138 0.994673
vt 0.034473 0.994673
vt 0.034473 0.998008
vt 0.031138 0.998008
vt 0.031138 0.994673
vt 0.034473 0.994673
vt 0.034473 0.998008
vt 0.031138 0.998008
vt 0.031138 0.994673
vt 0.034473 0.994673
vt 0.034473 0.998008
vt 0.031138 0.998008
vt 0.031138 0.994673
vn 0.000000 0.000000 -1.000000
vn 0.000000 0.000000 -1.000000
vn 0.000000 0.000000 -1.000000
vn 0.000000 0.000000 -1.000000
vn 0.000000 -1.000000 0.000000
vn 0.000000 -1.000000 0.000000
vn 0.000000 -1.000000 0.000000
vn 0.000000 -1.000000 0.000000
vn 0.000000 0.000000 1.000000
vn 0.000000 0.000000 1.000000
vn 0.000000 0.000000 1.000000
vn 0.000000 0.000000 1.000000
vn -1.000000 0.000000 0.000000
vn -1.000000 0.000000 0.000000
vn -1.000000 0.000000 0.000000
vn -1.000000 0.000000 0.000000
vn 1.000000 0.000000 0.000000
vn 1.000000 0.000000 0.000000
vn 1.000000 0.000000 0.000000
vn 1.000000 0.000000 0.000000
vn 0.000000 0.000000 0.000000
vn 0.000000 0.000000 0.000000
vn 0.000000 0.000000 0.000000
vn 0.000000 0.000000 0.000000
vn 0.000000 0.000000 0.000000
vn 0.000000 0.000000 0.000000
vn 0.000000 0.000000 0.000000
vn 0.000000 0.000000 0.000000
vn 0.000000 0.000000 0.000000
vn 0.000000 0.000000 0.000000
vn 0.000000 0.000000 0.000000
vn 0.000000 0.000000 0.000000
vn 0.000000 0.000000 0.000000
vn 0.000000 0.000000 0.000000
vn 0.000000 0.000000 0.000000
vn 0.000000 0.000000 0.000000
vn 0.000000 0.000000 0.000000
vn 0.000000 0.000000 0.000000
vn 0.000000 0.000000 0.000000
vn 0.000000 0.000000 0.000000
vn -1.000000 0.000000 0.000000
vn -1.000000 0.000000 0.000000
vn -1.000000 0.000000 0.000000
vn -1.000000 0.000000 0.000000
vn 0.000000 0.000000 0.000000
vn 0.000000 0.000000 0.000000
vn 0.000000 0.000000 0.000000
vn 0.000000 0.000000 0.000000
vn -1.000000 0.000000 0.000000
vn -1.000000 0.000000 0.000000
vn -1.000000 0.000000 0.000000
vn -1.000000 0.000000 0.000000
vn -1.000000 0.000000 0.000000
vn -1.000000 0.000000 0.000000
vn -1.000000 0.000000 0.000000
vn -1.000000 0.000000 0.000000
vn 0.000000 0.000000 0.000000
vn 0.000000 0.000000 0.000000
vn 0.000000 0.000000 0.000000
vn 0.000000 0.000000 0.000000
vn -1.000000 0.000000 0.000000
vn -1.000000 0.000000 0.000000
vn -1.000000 0.000000 0.000000
vn -1.000000 0.000000 0.000000
vn 0.000000 0.000000 0.000000
vn 0.000000 0.000000 0.000000
vn 0.000000 0.000000 0.000000
vn 0.000000 0.000000 0.000000
vn -1.000000 0.000000 0.000000
vn -1.000000 0.000000 0.000000
vn 0.000000 0.000000 0.000000
vn 0.000000 0.000000 0.000000
vn 0.000000 0.000000 0.000000
vn 0.000000 0.000000 0.000000
vn -1.000000 0.000000 0.000000
vn -1.000000 0.000000 0.000000
vn 0.000000 0.000000 0.000000
vn 0.000000 0.000000 0.000000
vn 0.000000 0.000000 0.000000
vn 0.000000 0.000000 0.000000
vn 0.000000 -0.000000 0.000000
vn 0.000000 -0.000000 0.000000
vn 0.000000 -1.000000 0.000000
vn 0.000000 -1.000000 0.000000
vn 0.000000 0.000000 0.000000
vn 0.000000 0.000000 0.000000
vn 0.000000 1.000000 0.000000
vn 0.000000 1.000000 0.000000
s off
g pCube1
usemtl initialShadingGroup
f 9/21/1 10/22/2 11/23/3 12/24/4
f 3/17/5 5/18/6 6/19/7 4/20/8
f 5/25/9 7/26/10 8/27/11 6/28/12
f 25/41/13 26/42/14 27/43/15 28/44/16
f 7/13/17 5/14/18 3/15/19 1/16/20
f 1/1/21 3/3/22 10/6/23 9/5/24
f 3/3/25 4/4/26 11/7/27 10/6/28
f 4/4/29 2/2/30 12/8/31 11/7/32
f 2/2/33 1/1/34 9/5/35 12/8/36
f 2/9/37 4/10/38 14/30/39 13/29/40
f 4/10/41 6/11/42 15/31/43 14/30/44
f 6/11/45 8/12/46 16/32/47 15/31/48
f 8/12/49 2/9/50 13/29/51 16/32/52
s 1
f 13/29/53 14/30/54 18/34/55 17/33/56
s off
f 14/30/57 15/31/58 19/35/59 18/34/60
s 2
f 15/31/61 16/32/62 20/36/63 19/35/64
s off
f 16/32/65 13/29/66 17/33/67 20/36/68
s 1
f 17/33/56 18/34/55 22/38/69 21/37/70
s off
f 18/34/71 19/35/72 23/39/73 22/38/74
s 2
f 19/35/64 20/36/63 24/40/75 23/39/76
s off
f 20/36/77 17/33/78 21/37/79 24/40/80
f 22/38/81 23/39/82 27/43/83 26/42/84
f 24/40/85 21/37/86 25/41/87 28/44/88
